<svg xmlns="http://www.w3.org/2000/svg" viewBox="0 0 512 512" fill="none">
    <defs>
      <linearGradient id="maskableGradient" x1="0%" y1="0%" x2="100%" y2="100%">
        <stop offset="0%" stop-color="#4F46E5" />
        <stop offset="100%" stop-color="#3730A3" />
      </linearGradient>
    </defs>
    <rect width="512" height="512" fill="url(#maskableGradient)" />
    <g transform="translate(102.4, 102.4) scale(0.6)">
      <circle cx="256" cy="256" r="256" fill="white" fill-opacity="0.1" />
      <path d="M256 96c-88.4 0-160 71.6-160 160s71.6 160 160 160 160-71.6 160-160S344.4 96 256 96zm0 280c-66.3 0-120-53.7-120-120s53.7-120 120-120 120 53.7 120 120-53.7 120-120 120z" fill="white" fill-opacity="0.9" />
      <path d="M280 192l48 48-48 48M232 288l-48-48 48-48" stroke="white" stroke-width="24" stroke-linecap="round" stroke-linejoin="round" />
    </g>
  </svg>