<svg xmlns="http://www.w3.org/2000/svg" width="800" height="418" fill="none">
    <defs>
      <linearGradient id="twitterGradient" x1="0%" y1="0%" x2="100%" y2="100%">
        <stop offset="0%" stop-color="#4F46E5" />
        <stop offset="100%" stop-color="#3730A3" />
      </linearGradient>
      <filter id="twitterGlow" x="-20%" y="-20%" width="140%" height="140%">
        <feGaussianBlur in="SourceGraphic" stdDeviation="5" />
      </filter>
    </defs>
    
    <!-- Background -->
    <rect width="800" height="418" fill="#0B0F1C" />
    <path 
      d="M0 0L800 0L800 418L0 418Z" 
      fill="url(#twitterGradient)" 
      fill-opacity="0.1"
    />
    
    <!-- Icon -->
    <g transform="translate(50, 80) scale(0.4)">
      <circle cx="256" cy="256" r="256" fill="url(#twitterGradient)" filter="url(#twitterGlow)" />
      <path 
        d="M256 96c-88.4 0-160 71.6-160 160s71.6 160 160 160 160-71.6 160-160S344.4 96 256 96zm0 280c-66.3 0-120-53.7-120-120s53.7-120 120-120 120 53.7 120 120-53.7 120-120 120z" 
        fill="white" 
        fill-opacity="0.9" 
      />
      <path 
        d="M280 192l48 48-48 48M232 288l-48-48 48-48" 
        stroke="white" 
        stroke-width="24" 
        stroke-linecap="round" 
        stroke-linejoin="round" 
      />
    </g>
    
    <!-- Text -->
    <g transform="translate(280, 0)">
      <text 
        x="0" 
        y="180" 
        fill="white" 
        font-family="Inter, system-ui, sans-serif" 
        font-size="48" 
        font-weight="bold" 
        letter-spacing="-0.02em"
      >
        AbujaBureauDeChange
      </text>
      
      <text 
        x="0" 
        y="240" 
        fill="white" 
        fill-opacity="0.8" 
        font-family="Inter, system-ui, sans-serif" 
        font-size="24"
      >
        Fast & Secure Currency Exchange
      </text>
      
      <text 
        x="0" 
        y="300" 
        fill="white" 
        fill-opacity="0.6" 
        font-family="Inter, system-ui, sans-serif" 
        font-size="20"
      >
        Real-time rates • Secure transfers • Global reach
      </text>
    </g>
  </svg>